<?xml version="1.0" encoding="UTF-8" standalone="no"?>
<!DOCTYPE svg PUBLIC "-//W3C//DTD SVG 1.1//EN" "http://www.w3.org/Graphics/SVG/1.1/DTD/svg11.dtd">
<svg version="1.1" xmlns="http://www.w3.org/2000/svg" xmlns:xlink="http://www.w3.org/1999/xlink" preserveAspectRatio="xMidYMid meet" viewBox="0 0 640 640" width="640" height="640"><defs><path d="M200 200L440 200L440 440L200 440L200 200Z" id="c1h4JYQWTx"></path><path d="M480.99 135.65L545.16 102.59L507.07 163.91L498.8 154.95L444.57 205L435 194.63L489.23 144.58L480.99 135.65Z" id="d6vGEf1Kxg"></path><path d="M159.01 504.35L94.84 537.41L132.93 476.09L141.2 485.05L195.43 435L205 445.37L150.77 495.42L159.01 504.35Z" id="avj0vTQOu"></path><path d="M159.1 135.65L94.92 102.59L133.01 163.91L141.28 154.95L195.51 205L205.08 194.63L150.85 144.58L159.1 135.65Z" id="gy77N4Xq2"></path><path d="M480.99 504.35L545.16 537.41L507.07 476.09L498.8 485.05L444.57 435L435 445.37L489.23 495.42L480.99 504.35Z" id="b53e3ziQfF"></path></defs><g><g><g><use xlink:href="#c1h4JYQWTx" opacity="1" fill="#303030" fill-opacity="1"></use></g><g><use xlink:href="#d6vGEf1Kxg" opacity="1" fill="#303030" fill-opacity="1"></use></g><g><use xlink:href="#avj0vTQOu" opacity="1" fill="#303030" fill-opacity="1"></use></g><g><use xlink:href="#gy77N4Xq2" opacity="1" fill="#303030" fill-opacity="1"></use></g><g><use xlink:href="#b53e3ziQfF" opacity="1" fill="#303030" fill-opacity="1"></use></g></g></g></svg>