<?xml version="1.0" encoding="UTF-8" standalone="no"?>
<!DOCTYPE svg PUBLIC "-//W3C//DTD SVG 1.1//EN" "http://www.w3.org/Graphics/SVG/1.1/DTD/svg11.dtd">
<svg version="1.1" xmlns="http://www.w3.org/2000/svg" xmlns:xlink="http://www.w3.org/1999/xlink" preserveAspectRatio="xMidYMid meet" viewBox="0 0 640 640" width="640" height="640"><defs><path d="" id="fmmimgiBg"></path><path d="" id="c26NNymz0C"></path><path d="M467.5 321.11C467.5 305.13 462.83 287.22 453.48 267.38C451.86 263.95 454.36 260 458.16 260C460.53 260 462.36 260 465.45 260C468.15 260 470.53 261.77 471.31 264.36C477.1 283.71 480 301.86 480 318.79C480 334.39 477.54 349.02 472.63 362.68C471.05 367.07 466.89 370 462.22 370C459.78 370 457.56 370 454.44 370C452.6 370 451.54 367.91 452.64 366.42C462.55 352.98 467.5 337.88 467.5 321.11Z" id="e18MuqSNRO"></path><path d="M501.22 320C501.22 293.94 496.62 264.89 487.41 232.83C485.56 226.4 490.38 220 497.07 220C498.4 220 493.76 220 496.27 220C500.58 220 504.28 223.08 505.06 227.33C510.83 258.89 513.72 288.51 513.72 316.2C513.72 341.68 511.3 365.47 506.45 387.57C504.86 394.83 498.42 400 490.99 400C489.54 400 493.54 400 490.99 400C487.58 400 485.3 396.48 486.7 393.37C496.38 371.79 501.22 347.34 501.22 320Z" id="d1qMrA79ya"></path><path d="M280 253C293.07 253 311.94 247.33 336.62 236L440 180C426.67 229.12 420 277.02 420 323.69C420 370.35 426.67 415.79 440 460L340 400C312.6 391.33 292.6 387 280 387C233.33 387 193.33 390.67 160 398C160 317.41 160 267.04 160 246.9C160 245.38 161.36 244.24 162.85 244.5C195.41 250.17 234.46 253 280 253Z" id="a1eZDJPdxN"></path></defs><g><g><g><g><use xlink:href="#fmmimgiBg" opacity="1" fill-opacity="0" stroke="#439ff3" stroke-width="2" stroke-opacity="1"></use></g></g><g><g><use xlink:href="#c26NNymz0C" opacity="1" fill-opacity="0" stroke="#439ff3" stroke-width="2" stroke-opacity="1"></use></g></g><g><use xlink:href="#e18MuqSNRO" opacity="1" fill="#303030" fill-opacity="1"></use></g><g><use xlink:href="#d1qMrA79ya" opacity="1" fill="#303030" fill-opacity="1"></use></g><g><use xlink:href="#a1eZDJPdxN" opacity="1" fill="#303030" fill-opacity="1"></use></g></g></g></svg>